<svg width="80" height="80" viewBox="0 0 80 80" fill="none" xmlns="http://www.w3.org/2000/svg">
    <path d="M49.0581 57.0283C49.3538 56.7221 49.5862 56.3606 49.742 55.9645C49.8978 55.5684 49.974 55.1455 49.9661 54.7199C49.9583 54.2943 49.8666 53.8745 49.6963 53.4844C49.526 53.0943 49.2804 52.7416 48.9736 52.4466L36.1332 40.0713L48.5085 27.2309C49.1049 26.6121 49.431 25.7817 49.4151 24.9225C49.3993 24.0633 49.0428 23.2455 48.424 22.6491C47.8052 22.0528 46.9749 21.7266 46.1156 21.7425C45.2564 21.7583 44.4386 22.1149 43.8423 22.7337L29.2024 37.9237C28.9067 38.2299 28.6743 38.5914 28.5185 38.9875C28.3627 39.3836 28.2865 39.8065 28.2944 40.2321C28.3022 40.6577 28.3939 41.0775 28.5642 41.4676C28.7346 41.8577 28.9801 42.2104 29.2869 42.5054L44.477 57.1453C45.7346 58.3573 47.8142 58.319 49.0581 57.0283Z" fill="white"/>
    </svg>
    